<?xml version="1.0" encoding="UTF-8" standalone="no"?><!DOCTYPE svg PUBLIC "-//W3C//DTD SVG 1.1//EN" "http://www.w3.org/Graphics/SVG/1.1/DTD/svg11.dtd"><svg width="100%" height="100%" viewBox="0 0 186 187" version="1.1" xmlns="http://www.w3.org/2000/svg" xmlns:xlink="http://www.w3.org/1999/xlink" xml:space="preserve" xmlns:serif="http://www.serif.com/" style="fill-rule:evenodd;clip-rule:evenodd;stroke-linejoin:round;stroke-miterlimit:2;"><path d="M76.487,172.958C84.151,174.368 116.948,151.836 116.948,151.836C113.466,157.563 81.411,181.646 78.099,183.939C76.516,185.034 75.412,183.909 74.269,182.746C73.021,181.476 71.729,180.159 69.721,181.649C68.355,182.663 68.162,184.013 68.03,184.94C67.835,186.296 67.771,186.743 64.359,183.899C63.538,183.22 62.524,182.345 61.268,181.247C53.257,175.446 43.962,178.973 35.117,182.33C31.912,183.546 28.765,184.741 25.761,185.461C22.706,185.842 23.278,182.154 24.326,180.214C25.331,178.566 26.333,176.936 27.327,175.317C32.912,166.227 38.277,157.491 42.837,147.904C43.386,146.873 43.937,145.855 44.497,144.841C45.056,143.83 45.627,142.823 46.205,141.817C46.713,141.165 47.226,140.632 47.724,140.241C52.715,136.331 57.321,127.909 59.051,122.765C59.32,121.967 59.486,121.06 59.662,120.104C60.618,114.893 61.839,108.243 81.214,110.139C104.148,112.379 120.996,133.933 120.996,133.933C122.737,136.157 122.48,136.392 120.422,134.457C120.422,134.457 112.358,126.864 100.688,119.747C89.018,112.632 66.376,114.187 66.995,123.42C67.303,128.039 66.393,130.253 64.153,132.446C63.594,132.992 62.951,133.538 62.223,134.124C59.207,136.314 56.365,138.741 53.725,141.371C52.842,142.25 51.982,143.151 51.146,144.076C44.037,152.642 38.107,161.783 32.091,171.059C30.836,172.993 29.578,174.933 28.304,176.875C26.969,178.592 24.708,183.269 28.273,182.819C31.987,182.355 35.735,180.921 39.488,179.484C46.54,176.786 53.608,174.081 60.497,177.795C62.175,178.781 63.373,179.097 63.942,177.81C65.65,173.947 68.819,171.542 76.487,172.958ZM131.369,155.498C131.369,155.498 117.645,180.031 111.529,175.216C105.409,170.403 116.841,160.04 116.841,160.04C120.226,156.969 120.215,156.92 116.807,159.93C116.807,159.93 101.727,173.269 107.966,179.89C116.735,189.196 132.085,155.631 132.085,155.631C134.038,151.359 133.714,151.299 131.369,155.498ZM135.358,140.552C133.008,144.429 132.688,144.373 134.641,140.429C134.641,140.429 149.993,109.448 158.757,118.037C164.997,124.149 149.917,136.461 149.917,136.461C146.512,139.241 146.5,139.194 149.888,136.358C149.888,136.358 161.319,126.794 155.195,122.352C149.078,117.904 135.358,140.552 135.358,140.552ZM98.364,109.926C98.364,109.926 88.861,102.86 89.941,90.977L90.039,89.888C91.026,78.969 91.208,76.955 99.056,72.948C104.12,70.365 107.368,65.857 109.074,60.916C109.402,59.915 109.669,58.893 109.848,57.845C110.439,52.81 109.607,47.981 108.77,43.11C108.368,40.772 107.964,38.424 107.714,36.039C107.605,34.988 107.524,33.932 107.489,32.863C107.582,31.553 107.768,29.37 108.284,29.315C109.277,29.912 110.179,30.552 111.009,31.236C111.937,31.997 112.793,32.83 113.589,33.714C116.354,36.785 118.435,40.51 120.524,44.248C122.654,48.058 124.791,51.882 127.667,55.043C128.262,55.924 128.829,56.811 129.404,57.761C137.208,71.118 143.4,93.079 133.366,129.978C133.366,129.978 153.147,85.21 133.944,51.838C133.346,50.877 132.791,49.996 132.196,49.101C129.706,45.572 127.495,41.784 125.287,37.999C123.73,35.329 122.174,32.661 120.52,30.087C119.948,29.199 119.37,28.318 118.771,27.46C114.179,22.069 110.557,16.213 106.933,10.357C104.779,6.872 102.623,3.387 100.263,0C99.752,6.223 100.641,12.27 101.532,18.325C102.256,23.253 102.981,28.185 102.954,33.223L102.952,34.123C102.949,34.905 102.948,35.686 102.944,36.465C102.903,41.832 102.787,47.126 101.885,52.336C101.756,53.136 101.632,53.875 101.51,54.577C100.035,62.986 99.026,66.482 92.512,70.466C83.821,75.776 76.65,97.598 98.364,109.926ZM145.089,32.555C145.32,31.639 145.577,30.727 145.874,29.822C146.355,28.75 147.18,26.977 147.625,27.086C148.265,27.892 148.821,28.713 149.302,29.541C149.842,30.468 150.298,31.431 150.69,32.424C152.051,35.858 152.642,39.63 153.236,43.416C153.84,47.271 154.447,51.139 155.87,54.679C156.097,55.606 156.293,56.529 156.484,57.499C158.181,67.145 151.92,94.666 144.634,111.332C145.064,112.284 145.48,113.254 145.82,114.291C152.738,102.141 164.986,71.107 162.073,53.935C161.871,52.946 161.681,52.034 161.456,51.1C160.466,47.361 159.787,43.494 159.109,39.63C158.631,36.91 158.155,34.191 157.569,31.522C157.364,30.599 157.15,29.68 156.917,28.775C154.751,22.836 153.531,16.804 152.312,10.773C151.585,7.175 150.858,3.578 149.929,0C147.6,5.064 146.486,10.415 145.372,15.774C144.466,20.134 143.558,24.499 141.993,28.717L141.71,29.486L141.708,29.488L140.99,31.435C139.398,35.693 137.766,39.866 135.604,43.778L136.699,45.132C138.107,46.869 139.493,48.578 140.728,50.37C142.366,46.667 143.079,42.762 143.798,38.826C144.181,36.735 144.564,34.637 145.089,32.555Z" style="fill:url(#_Linear1);fill-rule:nonzero;"/><defs><linearGradient id="_Linear1" x1="0" y1="0" x2="1" y2="0" gradientUnits="userSpaceOnUse" gradientTransform="matrix(185.621,92.8756,-92.8756,185.621,23.4874,0)"><stop offset="0" style="stop-color:#4ee6ee;stop-opacity:1"/><stop offset="0.17" style="stop-color:#4ee6ee;stop-opacity:1"/><stop offset="1" style="stop-color:#109ba2;stop-opacity:1"/></linearGradient></defs></svg>