<?xml version="1.0" standalone="no"?>
<!DOCTYPE svg PUBLIC "-//W3C//DTD SVG 20010904//EN"
 "http://www.w3.org/TR/2001/REC-SVG-20010904/DTD/svg10.dtd">
<svg version="1.0" xmlns="http://www.w3.org/2000/svg"
 width="748.000000pt" height="748.000000pt" viewBox="0 0 748.000000 748.000000"
 preserveAspectRatio="xMidYMid meet">
<metadata>
Created by potrace 1.14, written by Peter Selinger 2001-2017
</metadata>
<g transform="translate(0.000000,748.000000) scale(0.100000,-0.100000)"
fill="#000000" stroke="none">
<path d="M6010 7468 c0 -7 -7 -26 -15 -41 -38 -74 -136 -422 -151 -540 -2 -16
-6 -32 -9 -37 -3 -4 -7 -25 -11 -46 -13 -88 -83 -360 -111 -434 -3 -8 -7 -20
-8 -25 -13 -55 -168 -433 -226 -548 -16 -32 -29 -63 -29 -69 0 -11 79 -111 93
-116 4 -2 7 -10 7 -17 0 -7 4 -15 10 -17 5 -1 27 -27 49 -56 21 -29 42 -48 46
-43 10 17 65 180 63 188 0 5 1 15 5 23 6 16 24 96 32 145 5 32 12 66 20 105 3
14 8 42 11 64 14 88 65 274 91 325 42 85 48 82 123 -49 45 -78 94 -223 114
-335 19 -105 46 -265 51 -303 3 -25 8 -48 10 -51 1 -3 6 -24 9 -46 8 -49 19
-91 56 -215 47 -159 49 -177 45 -345 -4 -165 -7 -197 -26 -325 -6 -41 -12 -84
-14 -95 -8 -60 -40 -227 -66 -345 -37 -163 -37 -165 -39 -165 -1 0 -4 -11 -6
-25 -7 -36 -73 -281 -85 -310 -5 -14 -11 -36 -14 -49 -9 -47 -129 -402 -146
-435 -6 -10 -12 -26 -14 -35 -2 -9 -18 -51 -36 -93 -31 -73 -32 -79 -19 -118
7 -23 19 -48 26 -57 10 -15 14 -13 29 18 10 19 22 37 27 40 5 3 9 9 9 12 0 4
26 63 59 131 59 124 186 418 192 446 2 8 5 17 8 20 3 3 11 21 17 40 7 19 29
83 51 142 21 59 37 110 34 113 -3 3 -1 5 5 5 5 0 10 7 11 15 1 8 3 22 4 30 1
8 4 15 8 15 4 0 7 6 7 13 0 6 12 50 26 97 15 47 32 103 38 125 6 22 15 51 19
65 5 14 11 39 15 55 4 17 9 37 11 45 5 20 32 140 38 171 21 106 27 139 31 174
3 22 9 65 15 95 5 30 11 93 14 140 14 217 4 332 -45 530 -11 47 -22 94 -24
105 -2 11 -11 56 -20 100 -9 44 -18 89 -20 100 -2 17 -21 126 -40 235 -12 67
-16 86 -20 100 -2 8 -7 31 -10 50 -3 19 -11 53 -17 75 -6 22 -12 54 -15 70 -3
17 -11 45 -19 64 -14 34 -70 220 -77 257 -2 10 -7 26 -10 34 -6 17 -23 91 -31
135 -3 17 -8 39 -10 50 -3 11 -12 54 -21 95 -9 41 -18 84 -20 95 -1 11 -12 65
-24 121 -12 55 -23 109 -25 120 -2 10 -14 61 -26 112 -20 85 -30 111 -30 80z"/>
<path d="M4028 7453 c-10 -39 2 -350 16 -433 2 -14 8 -52 11 -85 4 -33 9 -69
11 -80 1 -11 5 -38 8 -60 4 -22 9 -60 12 -85 3 -25 7 -52 9 -60 2 -8 7 -42 11
-75 3 -33 8 -68 10 -77 24 -131 25 -776 0 -953 -2 -16 -7 -57 -11 -90 -4 -32
-9 -68 -11 -80 -3 -11 -7 -38 -10 -60 -5 -34 -16 -86 -49 -240 -11 -51 -48
-143 -70 -177 -14 -21 -25 -41 -25 -45 0 -16 -129 -132 -201 -180 -147 -99
-243 -228 -305 -410 -39 -115 -49 -174 -48 -303 0 -151 19 -246 74 -367 27
-59 84 -158 100 -173 3 -3 23 -27 45 -54 46 -59 108 -117 179 -169 28 -21 59
-44 68 -52 9 -8 32 -21 50 -30 l33 -17 -41 39 c-47 45 -144 166 -144 181 0 6
-4 12 -8 14 -25 10 -102 211 -118 308 -8 44 -12 212 -6 224 3 5 6 29 8 55 6
95 26 248 41 306 40 160 97 219 340 353 81 44 174 124 235 202 69 86 150 259
164 347 3 20 8 45 10 57 6 31 6 215 -1 258 -3 20 -8 58 -10 85 -2 26 -5 59 -8
73 -3 14 -11 59 -17 100 -16 106 -17 112 -24 140 -28 126 -40 397 -20 448 l10
23 49 -33 c64 -41 164 -137 218 -208 23 -30 44 -57 47 -60 7 -6 150 -239 150
-243 0 -2 31 -58 68 -123 76 -133 169 -276 205 -314 72 -77 205 -314 270 -480
53 -136 67 -176 67 -192 0 -10 5 -18 11 -18 5 0 7 -4 4 -10 -3 -5 -1 -18 4
-28 6 -11 12 -30 14 -43 3 -13 10 -44 17 -69 7 -25 14 -54 16 -65 2 -11 8 -42
14 -70 5 -27 12 -66 15 -85 3 -19 8 -42 10 -50 2 -8 7 -42 10 -75 3 -33 8 -71
10 -86 20 -113 20 -656 1 -754 -2 -12 -7 -52 -11 -90 -11 -103 -21 -185 -31
-240 -3 -16 -8 -43 -10 -60 -9 -58 -12 -70 -24 -135 -6 -36 -14 -74 -16 -85
-4 -20 -50 -225 -58 -256 -3 -9 -9 -34 -15 -55 -6 -21 -9 -40 -7 -42 7 -6 99
245 94 258 -1 3 4 15 11 28 18 34 87 286 127 464 11 50 14 66 20 98 4 19 8 44
10 55 10 51 37 213 40 240 1 17 5 48 8 70 6 42 12 110 22 230 8 100 7 408 -1
496 -4 41 -9 90 -10 109 -3 35 -13 116 -21 158 -11 61 -14 79 -19 107 -38 225
-175 592 -288 768 -20 31 -37 61 -37 66 0 5 -4 11 -8 13 -12 4 -72 95 -72 107
0 6 -4 11 -8 11 -5 0 -14 10 -20 23 -7 12 -22 38 -35 58 -24 39 -130 217 -241
404 -38 66 -74 122 -78 123 -4 2 -8 8 -8 14 0 6 -16 33 -35 59 -19 27 -35 52
-35 57 0 4 -18 27 -40 52 -52 58 -50 56 -112 141 -29 41 -55 76 -59 79 -13 12
-129 191 -129 200 0 5 -3 10 -8 10 -4 0 -12 9 -17 20 -14 28 -207 337 -277
443 -32 48 -58 90 -58 93 0 3 -5 10 -10 17 -6 7 -19 22 -29 35 -17 20 -19 20
-23 5z"/>
<path d="M2888 3084 c-2 -1 -25 -5 -53 -8 -27 -3 -75 -12 -105 -20 -197 -52
-285 -155 -325 -381 -12 -73 -17 -90 -40 -151 -72 -191 -231 -450 -354 -574
-42 -43 -83 -81 -91 -86 -15 -9 -70 -78 -70 -89 0 -3 -12 -24 -27 -48 -14 -23
-73 -134 -131 -247 -92 -181 -161 -309 -240 -445 -12 -22 -25 -48 -29 -57 -3
-10 -9 -18 -14 -18 -5 0 -9 -4 -9 -10 0 -5 -18 -39 -40 -75 -22 -36 -40 -69
-40 -74 0 -5 -3 -11 -8 -13 -6 -3 -151 -238 -161 -263 -2 -5 -8 -14 -13 -20
-24 -28 -152 -245 -164 -277 -25 -72 -10 -154 32 -164 42 -11 135 17 449 134
157 58 273 98 311 107 10 2 37 9 59 14 158 39 275 44 394 19 118 -25 210 -73
320 -167 119 -102 167 -135 184 -128 8 3 18 26 21 50 8 55 40 105 84 130 47
27 91 16 145 -37 65 -63 99 -84 127 -79 21 3 75 34 115 66 6 4 102 78 215 163
113 85 212 160 220 167 8 7 76 59 150 116 74 58 144 113 155 123 11 10 49 42
85 69 79 62 132 105 160 129 12 10 39 33 60 50 21 17 49 41 62 52 13 11 45 39
72 62 124 105 265 243 290 284 8 13 2 9 -229 -141 -253 -165 -320 -207 -332
-207 -6 0 -13 -4 -15 -8 -4 -10 -132 -87 -323 -194 -260 -145 -464 -238 -585
-266 -29 -7 -118 -6 -248 1 -92 5 -222 -15 -222 -35 0 -4 -6 -8 -13 -8 -22 0
-100 -83 -125 -134 -38 -75 -52 -77 -164 -23 -85 40 -136 56 -209 62 -28 2
-54 7 -56 9 -3 3 -16 1 -29 -4 -14 -6 -26 -6 -29 1 -4 5 -10 7 -15 4 -4 -2
-25 -7 -45 -11 -36 -5 -54 -9 -92 -18 -10 -2 -39 -9 -65 -15 -25 -6 -57 -15
-70 -20 -37 -15 -62 -24 -75 -27 -7 -1 -56 -19 -110 -40 -54 -21 -100 -39
-103 -40 -3 0 -18 -6 -35 -13 -139 -57 -370 -105 -402 -83 -21 13 -20 74 0
122 11 25 52 95 92 155 39 61 103 157 140 215 76 117 329 496 360 540 11 15
42 59 68 96 85 121 92 130 193 260 153 199 332 375 524 519 89 66 171 151 197
205 27 57 35 104 33 208 -1 113 12 152 66 208 72 72 209 127 379 151 66 9 293
9 375 0 193 -23 369 -78 525 -166 138 -78 546 -370 648 -465 7 -6 42 -36 77
-66 36 -30 78 -67 94 -83 35 -34 45 -28 20 12 -40 61 -234 267 -354 375 -78
69 -149 126 -158 126 -6 0 -12 4 -14 9 -5 12 -171 130 -258 183 -68 41 -290
156 -308 159 -4 1 -18 6 -32 12 -14 5 -29 11 -35 13 -5 1 -35 11 -65 22 -64
24 -245 68 -310 76 -25 3 -67 9 -95 12 -49 6 -362 13 -367 8z"/>
<path d="M6108 2782 c-53 -25 -93 -57 -167 -130 -54 -53 -116 -122 -139 -152
-23 -30 -45 -59 -50 -65 -36 -48 -82 -117 -82 -125 0 -6 -4 -10 -9 -10 -5 0
-14 -13 -21 -30 -7 -16 -16 -30 -21 -30 -5 0 -9 -6 -9 -14 0 -8 -6 -21 -13
-28 -7 -7 -39 -58 -70 -113 -31 -55 -61 -105 -67 -112 -5 -7 -10 -19 -10 -28
0 -8 -4 -15 -10 -15 -5 0 -10 -7 -10 -15 0 -8 -13 -36 -29 -63 -16 -27 -32
-60 -35 -73 l-7 -24 21 25 c12 14 62 87 111 163 49 76 94 144 99 150 6 7 34
44 62 82 28 39 54 72 57 75 3 3 24 28 45 55 92 117 249 255 326 288 14 5 46
11 72 13 40 2 52 -2 87 -32 106 -91 73 -226 -107 -434 l-66 -75 68 65 c184
176 295 362 296 491 0 109 -107 206 -219 197 -18 -1 -65 -18 -103 -36z"/>
<path d="M6036 2043 c-6 -14 -5 -15 5 -6 7 7 10 15 7 18 -3 3 -9 -2 -12 -12z"/>
<path d="M5331 1358 c-7 -11 -22 -37 -33 -57 -11 -20 -36 -63 -57 -96 -57 -95
-59 -98 -77 -132 -10 -18 -21 -33 -26 -33 -4 0 -8 -4 -8 -10 0 -5 -12 -27 -27
-48 -16 -22 -48 -68 -72 -103 -127 -184 -294 -358 -384 -403 -71 -34 -116 -36
-162 -5 -104 70 -97 215 17 384 23 33 49 69 59 80 62 70 71 89 15 31 -36 -38
-78 -85 -93 -105 -15 -20 -30 -38 -33 -41 -3 -3 -17 -21 -30 -40 -13 -19 -27
-37 -31 -40 -3 -3 -27 -48 -52 -100 -40 -82 -58 -144 -60 -200 -1 -31 16 -100
24 -100 5 0 9 -6 9 -13 0 -18 57 -71 99 -92 47 -24 125 -15 193 22 49 26 197
164 245 228 36 49 67 89 76 100 30 38 157 242 157 252 0 7 4 13 8 13 5 0 19
23 32 50 13 28 27 50 32 50 4 0 8 7 8 15 0 8 13 36 28 62 30 52 143 280 147
297 1 6 5 19 10 29 11 26 1 30 -14 5z"/>
</g>
</svg>
